<mxfile host="app.diagrams.net" modified="2021-04-08T02:43:15.676Z" agent="5.0 (Windows NT 6.1; Win64; x64) AppleWebKit/537.36 (KHTML, like Gecko) Chrome/88.0.4324.96 Safari/537.36" etag="e7FE1hTy-TVZRj2P-hca" version="14.5.8" type="github">
  <diagram id="6a731a19-8d31-9384-78a2-239565b7b9f0" name="Page-1">
    <mxGraphModel dx="1422" dy="762" grid="1" gridSize="10" guides="1" tooltips="1" connect="1" arrows="1" fold="1" page="1" pageScale="1" pageWidth="1169" pageHeight="827" background="#ffffff" math="0" shadow="0">
      <root>
        <mxCell id="0" />
        <mxCell id="1" parent="0" />
        <mxCell id="NcZiyVn7hDXTTDLJGuJN-144" value="进销存" style="rounded=1;whiteSpace=wrap;html=1;" vertex="1" parent="1">
          <mxGeometry x="100" y="240" width="120" height="60" as="geometry" />
        </mxCell>
        <mxCell id="NcZiyVn7hDXTTDLJGuJN-145" value="财务" style="rounded=1;whiteSpace=wrap;html=1;" vertex="1" parent="1">
          <mxGeometry x="100" y="316" width="120" height="60" as="geometry" />
        </mxCell>
        <mxCell id="NcZiyVn7hDXTTDLJGuJN-147" value="订货" style="rounded=1;whiteSpace=wrap;html=1;" vertex="1" parent="1">
          <mxGeometry x="100" y="390" width="120" height="60" as="geometry" />
        </mxCell>
        <mxCell id="NcZiyVn7hDXTTDLJGuJN-148" value="零售" style="rounded=1;whiteSpace=wrap;html=1;" vertex="1" parent="1">
          <mxGeometry x="100" y="470" width="120" height="60" as="geometry" />
        </mxCell>
        <mxCell id="NcZiyVn7hDXTTDLJGuJN-149" value="APP消息中心" style="rounded=1;whiteSpace=wrap;html=1;" vertex="1" parent="1">
          <mxGeometry x="410" y="300" width="120" height="60" as="geometry" />
        </mxCell>
        <mxCell id="NcZiyVn7hDXTTDLJGuJN-150" value="PC消息中心" style="rounded=1;whiteSpace=wrap;html=1;" vertex="1" parent="1">
          <mxGeometry x="410" y="420" width="120" height="60" as="geometry" />
        </mxCell>
        <mxCell id="NcZiyVn7hDXTTDLJGuJN-151" value="微信" style="rounded=1;whiteSpace=wrap;html=1;" vertex="1" parent="1">
          <mxGeometry x="720" y="116" width="120" height="60" as="geometry" />
        </mxCell>
        <mxCell id="NcZiyVn7hDXTTDLJGuJN-152" value="报表统计" style="rounded=1;whiteSpace=wrap;html=1;" vertex="1" parent="1">
          <mxGeometry x="660" y="540" width="120" height="60" as="geometry" />
        </mxCell>
        <mxCell id="NcZiyVn7hDXTTDLJGuJN-153" value="单据数量" style="rounded=1;whiteSpace=wrap;html=1;" vertex="1" parent="1">
          <mxGeometry x="660" y="610" width="120" height="60" as="geometry" />
        </mxCell>
        <mxCell id="NcZiyVn7hDXTTDLJGuJN-154" value="基础资料" style="rounded=1;whiteSpace=wrap;html=1;" vertex="1" parent="1">
          <mxGeometry x="660" y="680" width="120" height="60" as="geometry" />
        </mxCell>
        <mxCell id="NcZiyVn7hDXTTDLJGuJN-155" value="基础资料" style="rounded=1;whiteSpace=wrap;html=1;" vertex="1" parent="1">
          <mxGeometry x="100" y="540" width="120" height="60" as="geometry" />
        </mxCell>
        <mxCell id="NcZiyVn7hDXTTDLJGuJN-156" value="POS机" style="rounded=1;whiteSpace=wrap;html=1;" vertex="1" parent="1">
          <mxGeometry x="660" y="750" width="120" height="60" as="geometry" />
        </mxCell>
        <mxCell id="NcZiyVn7hDXTTDLJGuJN-157" value="钉钉" style="rounded=1;whiteSpace=wrap;html=1;" vertex="1" parent="1">
          <mxGeometry x="720" y="186" width="120" height="60" as="geometry" />
        </mxCell>
        <mxCell id="NcZiyVn7hDXTTDLJGuJN-158" value="精斗云APP" style="rounded=1;whiteSpace=wrap;html=1;" vertex="1" parent="1">
          <mxGeometry x="720" y="256" width="120" height="60" as="geometry" />
        </mxCell>
        <mxCell id="NcZiyVn7hDXTTDLJGuJN-159" value="小米" style="rounded=1;whiteSpace=wrap;html=1;" vertex="1" parent="1">
          <mxGeometry x="720" y="330" width="120" height="60" as="geometry" />
        </mxCell>
        <mxCell id="NcZiyVn7hDXTTDLJGuJN-160" value="华为" style="rounded=1;whiteSpace=wrap;html=1;" vertex="1" parent="1">
          <mxGeometry x="720" y="400" width="120" height="60" as="geometry" />
        </mxCell>
        <mxCell id="NcZiyVn7hDXTTDLJGuJN-162" value="" style="endArrow=classic;html=1;entryX=0;entryY=0.5;entryDx=0;entryDy=0;" edge="1" parent="1" source="NcZiyVn7hDXTTDLJGuJN-144" target="NcZiyVn7hDXTTDLJGuJN-149">
          <mxGeometry relative="1" as="geometry">
            <mxPoint x="260" y="269.5" as="sourcePoint" />
            <mxPoint x="420" y="269.5" as="targetPoint" />
          </mxGeometry>
        </mxCell>
        <mxCell id="NcZiyVn7hDXTTDLJGuJN-163" value="Label" style="edgeLabel;resizable=0;html=1;align=center;verticalAlign=middle;" connectable="0" vertex="1" parent="NcZiyVn7hDXTTDLJGuJN-162">
          <mxGeometry relative="1" as="geometry" />
        </mxCell>
        <mxCell id="NcZiyVn7hDXTTDLJGuJN-164" value="Source" style="edgeLabel;resizable=0;html=1;align=left;verticalAlign=bottom;" connectable="0" vertex="1" parent="NcZiyVn7hDXTTDLJGuJN-162">
          <mxGeometry x="-1" relative="1" as="geometry" />
        </mxCell>
      </root>
    </mxGraphModel>
  </diagram>
</mxfile>
